# xmcd
# 
# Track frame offsets:
#     150
#     29097
#     37382
# 
# Disc length: 823
# 
# Revision: 1
# Processed by: cddbd v1.5.2PL0 Copyright (c) Steve Scherf et al.
# Submitted via: fre:ac v1.0.31
# 
DISCID=29033503
DTITLE=Stam1na, Rytmihäiriö, Mokoma - Sakara Tour 06 - Rytmikorjaamo, Seinäjoki 03.11.2006
DYEAR=2006
DGENRE=Metal
TTITLE0=Mokoma - Väsynyt Atlas
TTITLE1=Rytmihäiriö - Mitä Välii Nimestä... Kunhan Dokaa Vitusti
TTITLE2=Stam1ma - Likainen Parketti
EXTD=
EXTT0=
EXTT1=
EXTT2=
PLAYORDER=
